<?xml version="1.0" encoding="UTF-8"?>
<svg version="1.1" xmlns="http://www.w3.org/2000/svg" width="96" height="96">
<path d="M0 0 C1.27472168 -0.00630432 2.54944336 -0.01260864 3.86279297 -0.019104 C5.26009254 -0.01552433 6.65739087 -0.01142239 8.0546875 -0.00683594 C9.48193427 -0.00818265 10.90918059 -0.01012323 12.33642578 -0.01263428 C15.32914595 -0.01558528 18.32174681 -0.01128876 21.31445312 -0.00195312 C25.15485123 0.00944151 28.99496982 0.00288189 32.83535767 -0.00909805 C35.7829805 -0.01631737 38.73053681 -0.01402842 41.67816162 -0.00884247 C43.09438103 -0.00750616 44.51060644 -0.00915303 45.92681885 -0.01380157 C47.90433643 -0.01886768 49.88187512 -0.00978001 51.859375 0 C53.54909424 0.00238678 53.54909424 0.00238678 55.27294922 0.00482178 C57.9296875 0.25878906 57.9296875 0.25878906 59.9296875 2.25878906 C60.18365479 4.91552734 60.18365479 4.91552734 60.18847656 8.32910156 C60.19478088 9.60382324 60.20108521 10.87854492 60.20758057 12.19189453 C60.20400089 13.58919411 60.19989896 14.98649243 60.1953125 16.38378906 C60.19665921 17.81103583 60.19859979 19.23828215 60.20111084 20.66552734 C60.20406184 23.65824751 60.19976532 26.65084837 60.19042969 29.64355469 C60.17903505 33.4839528 60.18559467 37.32407138 60.19757462 41.16445923 C60.20479393 44.11208206 60.20250498 47.05963837 60.19731903 50.00726318 C60.19598273 51.42348259 60.19762959 52.839708 60.20227814 54.25592041 C60.20734425 56.23343799 60.19825658 58.21097668 60.18847656 60.18847656 C60.18688538 61.31495605 60.18529419 62.44143555 60.18365479 63.60205078 C59.9296875 66.25878906 59.9296875 66.25878906 57.9296875 68.25878906 C55.27294922 68.51275635 55.27294922 68.51275635 51.859375 68.51757812 C49.94729248 68.52703461 49.94729248 68.52703461 47.99658203 68.53668213 C46.59928246 68.53310245 45.20198413 68.52900052 43.8046875 68.52441406 C42.37744073 68.52576077 40.95019441 68.52770135 39.52294922 68.5302124 C36.53022905 68.5331634 33.53762819 68.52886688 30.54492188 68.51953125 C26.70452377 68.50813662 22.86440518 68.51469623 19.02401733 68.52667618 C16.0763945 68.53389549 13.12883819 68.53160655 10.18121338 68.52642059 C8.76499397 68.52508429 7.34876856 68.52673116 5.93255615 68.5313797 C3.95503857 68.53644581 1.97749988 68.52735814 0 68.51757812 C-1.68971924 68.51519135 -1.68971924 68.51519135 -3.41357422 68.51275635 C-6.0703125 68.25878906 -6.0703125 68.25878906 -8.0703125 66.25878906 C-8.32427979 63.60205078 -8.32427979 63.60205078 -8.32910156 60.18847656 C-8.33540588 58.91375488 -8.34171021 57.6390332 -8.34820557 56.32568359 C-8.34462589 54.92838402 -8.34052396 53.5310857 -8.3359375 52.13378906 C-8.33728421 50.7065423 -8.33922479 49.27929597 -8.34173584 47.85205078 C-8.34468684 44.85933062 -8.34039032 41.86672975 -8.33105469 38.87402344 C-8.31966005 35.03362533 -8.32621967 31.19350674 -8.33819962 27.3531189 C-8.34541893 24.40549607 -8.34312998 21.45793975 -8.33794403 18.51031494 C-8.33660773 17.09409553 -8.33825459 15.67787013 -8.34290314 14.26165771 C-8.34796925 12.28414014 -8.33888158 10.30660145 -8.32910156 8.32910156 C-8.32751038 7.20262207 -8.32591919 6.07614258 -8.32427979 4.91552734 C-7.80781948 -0.48713644 -4.62149491 0.006528 0 0 Z " fill="#5DD74D" transform="translate(22.0703125,13.7412109375)"/>
<path d="M0 0 C2.46800047 1.15173355 4.04783565 2.04783565 6 4 C5.658068 7.18974867 4.49065127 8.89835879 2.3046875 11.171875 C1.75699707 11.7498584 1.20930664 12.3278418 0.64501953 12.92333984 C0.06091309 13.5261377 -0.52319336 14.12893555 -1.125 14.75 C-2.31850587 16.00705576 -3.51122104 17.26486274 -4.703125 18.5234375 C-5.27611328 19.12510742 -5.84910156 19.72677734 -6.43945312 20.34667969 C-9.39402357 23.47689732 -12.19309931 26.7381154 -15 30 C-16.31139657 31.50096479 -17.62389103 33.00097107 -18.9375 34.5 C-19.52402344 35.1703125 -20.11054687 35.840625 -20.71484375 36.53125 C-21.13894531 37.0159375 -21.56304687 37.500625 -22 38 C-26.54711711 37.51820956 -28.49066713 35.98577731 -31.64453125 32.74609375 C-32.48564453 31.89208984 -33.32675781 31.03808594 -34.19335938 30.15820312 C-35.05767578 29.26037109 -35.92199219 28.36253906 -36.8125 27.4375 C-37.69615234 26.53580078 -38.57980469 25.63410156 -39.49023438 24.70507812 C-41.66942062 22.47877434 -43.83872917 20.24367741 -46 18 C-44.48601545 14.21503862 -43.9855604 13.9927802 -40 12 C-35.05 16.95 -30.1 21.9 -25 27 C-20.79004482 23.49170402 -17.98370704 21.00970176 -14.75 16.875 C-10.06847103 11.01311961 -5.09645755 5.50076942 0 0 Z " fill="#F3F8F5" transform="translate(68,30)"/>
<path d="M0 0 C1.11474701 0.00444122 2.22949402 0.00888245 3.37802124 0.01345825 C5.26975571 0.01368484 5.26975571 0.01368484 7.19970703 0.01391602 C8.58124956 0.02413006 9.96279048 0.03456206 11.34432983 0.04519653 C12.7539449 0.04892615 14.16356256 0.05177337 15.57318115 0.05377197 C19.28536116 0.06141248 22.99738494 0.08106442 26.70950317 0.10317993 C30.4966114 0.12362945 34.28374483 0.13277177 38.07089233 0.14285278 C45.50325526 0.16431004 52.93548942 0.19845087 60.36776733 0.24050903 C59.70776733 0.57050903 59.04776733 0.90050903 58.36776733 1.24050903 C58.36776733 1.90050903 58.36776733 2.56050903 58.36776733 3.24050903 C54.9727893 4.01821003 51.95007974 4.3335823 48.47323608 4.19876099 C47.5287561 4.16575394 46.58427612 4.13274689 45.61117554 4.09873962 C44.60272583 4.05915634 43.59427612 4.01957306 42.55526733 3.97879028 C40.40685786 3.91084098 38.25841913 3.84381173 36.10995483 3.77761841 C32.73220103 3.66815872 29.35508768 3.55251496 25.9781189 3.42092896 C22.71248346 3.29655324 19.44688962 3.19814673 16.18026733 3.10379028 C15.17181763 3.05813431 14.16336792 3.01247833 13.12435913 2.96543884 C7.39512411 2.8194994 7.39512411 2.8194994 2.22470093 5.11209106 C0.04716939 7.60797852 -0.21130845 8.54316695 -0.00723267 11.80300903 C0.03401733 12.6808606 0.07526733 13.55871216 0.11776733 14.46316528 C0.28368272 16.30638158 0.47101548 18.14780212 0.68026733 19.98660278 C1.33138074 25.72453967 1.18340778 30.32731916 -0.15567017 35.95144653 C-0.80308921 39.06118062 -0.69553283 42.07550077 -0.63223267 45.24050903 C-0.93562949 46.58097136 -1.27228157 47.91411388 -1.63223267 49.24050903 C-1.99112479 50.82277795 -2.34523898 52.40613766 -2.69473267 53.99050903 C-2.87133423 54.78972778 -3.04793579 55.58894653 -3.22988892 56.41238403 C-3.36266235 57.01566528 -3.49543579 57.61894653 -3.63223267 58.24050903 C-3.96223267 58.24050903 -4.29223267 58.24050903 -4.63223267 58.24050903 C-4.67852816 50.97358575 -4.71408759 43.70669416 -4.73585701 36.4396534 C-4.74630409 33.06543909 -4.76047991 29.69132552 -4.78311157 26.31716919 C-4.80728152 22.44002586 -4.81869777 18.56302627 -4.82754517 14.68582153 C-4.83786774 13.47121246 -4.84819031 12.25660339 -4.85882568 11.00518799 C-4.85897675 9.88417694 -4.85912781 8.76316589 -4.85928345 7.60818481 C-4.86372467 6.61779205 -4.86816589 5.62739929 -4.8727417 4.60699463 C-4.51539428 1.09087923 -3.47124856 0.31717053 0 0 Z " fill="#43BF33" transform="translate(18.632232666015625,13.759490966796875)"/>
<path d="M0 0 C1.50650389 0.01124653 3.01301489 0.02157594 4.51953125 0.03100586 C13.52232115 0.10633151 22.49489268 0.37799464 31.46875 1.12890625 C34.15411975 1.46942729 34.15411975 1.46942729 36.1875 0.25 C35.3125 4.125 35.3125 4.125 34.1875 5.25 C32.1931827 5.34405142 30.19550457 5.36743249 28.19897461 5.36352539 C26.91772202 5.36344986 25.63646942 5.36337433 24.31639099 5.36329651 C22.90754152 5.35818909 21.49869244 5.35297309 20.08984375 5.34765625 C18.65637766 5.34579202 17.22291093 5.34436814 15.78944397 5.34336853 C12.00990043 5.33954372 8.2303951 5.32971377 4.4508667 5.31866455 C0.59680702 5.30844963 -3.25725882 5.30387074 -7.11132812 5.29882812 C-14.67840287 5.28809146 -22.24544609 5.27101549 -29.8125 5.25 C-30.1425 4.59 -30.4725 3.93 -30.8125 3.25 C-20.32515219 0.50254901 -10.7616453 -0.1628328 0 0 Z " fill="#20A80D" transform="translate(45.8125,76.75)"/>
<path d="M0 0 C0.33 0 0.66 0 1 0 C1 15.84 1 31.68 1 48 C-2.31035462 43.58619384 -2.37644622 42.56288772 -2.36328125 37.28515625 C-2.36377975 36.6335704 -2.36427826 35.98198456 -2.36479187 35.31065369 C-2.36245504 33.92964638 -2.35274934 32.54863451 -2.33618164 31.16772461 C-2.31292565 29.10033922 -2.31558116 27.03427693 -2.32226562 24.96679688 C-2.30280721 16.48788758 -1.56018248 8.33675071 0 0 Z " fill="#36B625" transform="translate(81,21)"/>
<path d="M0 0 C0.70918579 -0.00095673 1.41837158 -0.00191345 2.14904785 -0.00289917 C3.64493906 -0.00357595 5.14083328 -0.00175689 6.63671875 0.00244141 C8.87246701 0.00773255 11.10800843 0.00251262 13.34375 -0.00390625 C22.73983609 -0.00780052 32.03914045 0.37966944 41.40625 1.1328125 C41.07625 1.7928125 40.74625 2.4528125 40.40625 3.1328125 C20.93625 3.1328125 1.46625 3.1328125 -18.59375 3.1328125 C-12.50352883 0.08770191 -6.72792403 0.00587225 0 0 Z " fill="#2CB41A" transform="translate(36.59375,76.8671875)"/>
<path d="M0 0 C0.33 0 0.66 0 1 0 C1.19479335 6.38592723 1.37190555 12.77217489 1.53710938 19.15893555 C1.59527415 21.3286431 1.65738927 23.49824868 1.72363281 25.66772461 C1.81850613 28.79782526 1.89886073 31.92802531 1.9765625 35.05859375 C2.00875885 36.01833603 2.0409552 36.97807831 2.0741272 37.96690369 C2.20615164 43.99009863 1.53051575 49.16784696 0 55 C-0.33 55 -0.66 55 -1 55 C-1.02526605 47.32788798 -1.04283123 39.6557866 -1.05493164 31.98364258 C-1.05997377 29.37133381 -1.06680725 26.75902789 -1.07543945 24.14672852 C-1.08751036 20.40119732 -1.09322935 16.65570328 -1.09765625 12.91015625 C-1.10281754 11.73413345 -1.10797882 10.55811066 -1.11329651 9.34645081 C-1.11340981 7.72488319 -1.11340981 7.72488319 -1.11352539 6.07055664 C-1.115746 5.11347305 -1.11796661 4.15638947 -1.12025452 3.17030334 C-1 1 -1 1 0 0 Z " fill="#34B523" transform="translate(15,17)"/>
<path d="M0 0 C14.19 0 28.38 0 43 0 C42.34 0.33 41.68 0.66 41 1 C41 1.66 41 2.32 41 3 C35.80355771 2.90636355 30.60757574 2.80024689 25.41162109 2.68261719 C23.6444393 2.64436229 21.87718056 2.6095033 20.10986328 2.578125 C17.56775437 2.53239848 15.02617352 2.47441711 12.484375 2.4140625 C11.69569031 2.40251129 10.90700562 2.39096008 10.09442139 2.37905884 C5.97215465 2.26844175 3.77614741 1.88807371 0 0 Z " fill="#3DB92C" transform="translate(36,14)"/>
<path d="M0 0 C0.76481689 0.00451172 1.52963379 0.00902344 2.31762695 0.01367188 C3.51802612 0.01657227 3.51802612 0.01657227 4.74267578 0.01953125 C19.1247181 0.11371106 33.50642555 0.67070827 47.88012695 1.13867188 C45.88012695 3.13867188 45.88012695 3.13867188 43.85772705 3.31430054 C43.02755066 3.2800296 42.19737427 3.24575867 41.34204102 3.21044922 C40.40056213 3.17736664 39.45908325 3.14428406 38.48907471 3.11019897 C36.95787994 3.04308212 36.95787994 3.04308212 35.39575195 2.97460938 C33.24212536 2.90371005 31.08847874 2.8334167 28.93481445 2.76367188 C25.53304598 2.64193471 22.13179219 2.51374028 18.73071289 2.37402344 C15.45274822 2.24343863 12.17472551 2.1387005 8.89575195 2.03710938 C7.88305237 1.98831635 6.87035278 1.93952332 5.82696533 1.88925171 C-0.19999496 1.72009374 -3.50021512 2.1542901 -8.11987305 6.13867188 C-5.76514846 0.01638796 -5.76514846 0.01638796 0 0 Z " fill="#4EC53E" transform="translate(26.119873046875,14.861328125)"/>
<path d="M0 0 C0.33 0 0.66 0 1 0 C1.1240695 6.5067558 0.99373363 13.00046794 0.6875 19.5 C0.66502197 20.19416016 0.64254395 20.88832031 0.61938477 21.60351562 C0.45671363 24.61053394 0.34669236 26.55763811 -1.54296875 28.96875 C-2.26419922 29.47921875 -2.26419922 29.47921875 -3 30 C-2.67 28.02 -2.34 26.04 -2 24 C-2.33 24 -2.66 24 -3 24 C-3.17241804 15.72393411 -1.91371312 8.02644728 0 0 Z " fill="#4CC63C" transform="translate(79,23)"/>
<path d="M0 0 C0.99 0.495 0.99 0.495 2 1 C2.22346404 3.85369619 2.42913552 6.70688498 2.625 9.5625 C2.68945312 10.36236328 2.75390625 11.16222656 2.8203125 11.98632812 C3.15846478 17.16428489 2.72394315 21.09794793 1 26 C0.67 26 0.34 26 0 26 C0 17.42 0 8.84 0 0 Z " fill="#4DC73C" transform="translate(17,23)"/>
</svg>
