        <svg xmlns="http://www.w3.org/2000/svg" viewBox="0 0 24 24" fill="currentColor" className="w-6 h-6">
          <path d="M3 13.125C3 12.504 3.504 12 4.125 12h2.25c.621 0 1.125.504 1.125 1.125v6.75C7.5 20.496 6.996 21 6.375 21h-2.25A1.125 1.125 0 013 19.875v-6.75zm8.25-6.75c0-.621.504-1.125 1.125-1.125h2.25c.621 0 1.125.504 1.125 1.125v13.5c0 .621-.504 1.125-1.125 1.125h-2.25a1.125 1.125 0 01-1.125-1.125V6.375zm8.25 3.75c0-.621.504-1.125 1.125-1.125h2.25c.621 0 1.125.504 1.125 1.125v9.75c0 .621-.504 1.125-1.125 1.125h-2.25a1.125 1.125 0 01-1.125-1.125v-9.75z" />
        </svg>